<svg width="69" height="56" viewBox="0 0 69 56" fill="none" xmlns="http://www.w3.org/2000/svg">
<g clip-path="url(#clip0_56_22)">
<path d="M39.1898 17.0343L37.8784 16.0246C37.6735 15.8572 37.4113 15.7781 37.1489 15.8046C36.8865 15.831 36.6451 15.9609 36.477 16.1659L18.3286 37.1886L18.6089 37.5017L23.1035 33.3213C22.9537 33.2605 22.8297 33.1487 22.7532 33.0053C22.6766 32.8619 22.6523 32.696 22.6844 32.5364C22.7165 32.3768 22.8031 32.2336 22.929 32.1316C23.0549 32.0297 23.2123 31.9755 23.3737 31.9784C23.5193 31.9784 23.6611 32.0254 23.7782 32.1127C23.8953 32.1999 23.9816 32.3227 24.0244 32.4631L29.9504 26.9196C30.0412 26.8459 30.1542 26.8056 30.2707 26.8056C30.3873 26.8056 30.5003 26.8459 30.5911 26.9196L30.8914 27.1418C30.993 27.2152 31.1181 27.2476 31.2422 27.2327C31.3664 27.2177 31.4804 27.1565 31.562 27.061L39.3099 18.2965C39.3922 18.2095 39.4551 18.1056 39.4941 17.9919C39.5331 17.8782 39.5474 17.7574 39.536 17.6377C39.5246 17.5179 39.4878 17.4021 39.428 17.2979C39.3683 17.1938 39.287 17.1039 39.1898 17.0343Z" fill="white"/>
<path d="M47.7183 22.9514C43.7468 25.8019 39.2977 27.9056 34.585 29.1613C29.9077 30.3612 25.1216 31.0784 20.3005 31.3019C20.3976 32.0191 20.5722 32.7233 20.8211 33.4022C23.5438 35.8861 44.0446 31.6452 48.0487 26.7379C48.8996 25.7181 47.7183 22.9514 47.7183 22.9514ZM23.3737 33.3214C23.239 33.3214 23.1074 33.2811 22.9955 33.2057C22.8835 33.1302 22.7963 33.023 22.7448 32.8975C22.6933 32.7721 22.6798 32.634 22.706 32.5008C22.7323 32.3676 22.7971 32.2453 22.8923 32.1493C22.9875 32.0533 23.1088 31.9879 23.2409 31.9614C23.3729 31.9349 23.5098 31.9485 23.6341 32.0004C23.7585 32.0524 23.8648 32.1404 23.9396 32.2533C24.0144 32.3662 24.0543 32.499 24.0543 32.6348C24.0557 32.7253 24.039 32.8152 24.0053 32.8992C23.9716 32.9831 23.9215 33.0593 23.858 33.1233C23.7945 33.1874 23.7189 33.2379 23.6357 33.2719C23.5525 33.3059 23.4634 33.3228 23.3737 33.3214Z" fill="white"/>
<path d="M4.0041 21.4972L4.16426 20.8005L6.7669 21.3962C6.98163 21.7963 7.11439 22.2358 7.1573 22.6887C7.20698 23.1683 7.17653 23.653 7.06721 24.1225C6.93763 24.774 6.64078 25.3799 6.20634 25.8794C5.793 26.3511 5.26005 26.7002 4.66477 26.8892C4.05124 27.08 3.3987 27.1044 2.77285 26.9599C2.14564 26.8232 1.5675 26.5159 1.10116 26.0713C0.64196 25.6442 0.312222 25.0945 0.150192 24.486C-0.0295561 23.825 -0.0295561 23.1275 0.150192 22.4665C0.257779 21.9718 0.450924 21.5002 0.720771 21.0731C0.976169 20.6847 1.31922 20.3628 1.72179 20.134L2.08215 20.6894C1.73711 20.9031 1.44092 21.1882 1.21315 21.5258C0.985383 21.8635 0.83121 22.2461 0.760811 22.6483C0.636672 23.1706 0.64701 23.7164 0.790842 24.2336C0.925348 24.7247 1.19215 25.1685 1.56162 25.5159C1.94139 25.8862 2.41652 26.1416 2.93302 26.253C3.43385 26.3949 3.96373 26.3949 4.46457 26.253C4.94434 26.0933 5.37526 25.8116 5.71584 25.4352C6.06584 25.0285 6.30704 24.5385 6.41655 24.0114C6.58125 23.3721 6.53916 22.6964 6.29643 22.0828L4.0041 21.4972Z" fill="white"/>
<path d="M9.66977 15.1461L7.3374 18.2864L8.33842 20.0938L7.87795 20.7198L4.17419 13.9041L4.60463 13.3083L12.1423 14.9441L11.6718 15.5702L9.66977 15.1461ZM9.0091 14.9845L5.00504 14.0757L7.00707 17.7007L9.0091 14.9845Z" fill="white"/>
<path d="M9.00916 8.63334L9.60976 8.17896L13.4236 13.3286L16.5668 10.9557L16.9472 11.4707L13.2134 14.2879L9.00916 8.63334Z" fill="white"/>
<path d="M15.3156 4.42255L15.9862 4.11963L18.6289 9.95591L22.2025 8.32013L22.4628 8.90578L18.2185 10.8546L15.3156 4.42255Z" fill="white"/>
<path d="M28.5089 6.74504L28.6591 7.38117L23.8342 8.52217L22.2325 1.63577L26.9173 0.535156L27.0574 1.16119L23.0534 2.10025L23.624 4.54381L27.1475 3.70573L27.2977 4.33177L23.7641 5.15975L24.3647 7.71438L28.5089 6.74504Z" fill="white"/>
<path d="M35.3859 6.99757L33.7142 4.77615C33.5275 4.78657 33.3404 4.78657 33.1537 4.77615L31.2718 4.83674L31.3418 7.07835H30.6011L30.3708 0.0101965L33.0336 9.90983e-05C33.7864 -0.0700353 34.5392 0.134144 35.1557 0.575649C35.4155 0.786678 35.6244 1.05448 35.7666 1.35883C35.9088 1.66319 35.9806 1.99615 35.9765 2.33259C36.0058 2.83159 35.876 3.32694 35.6062 3.74622C35.3185 4.14866 34.9121 4.44907 34.445 4.6045L36.1968 6.96728L35.3859 6.99757ZM34.6852 3.67554C34.8651 3.50928 35.0048 3.30353 35.0933 3.07417C35.1818 2.84481 35.2169 2.59799 35.1957 2.35279C35.2009 2.10628 35.1504 1.86182 35.0481 1.6379C34.9458 1.41398 34.7943 1.21647 34.6051 1.06032C34.1438 0.744759 33.589 0.598609 33.0336 0.646331L31.1316 0.717012L31.2517 4.25109L33.1136 4.19051C33.6814 4.2117 34.2382 4.02924 34.6852 3.67554Z" fill="white"/>
<path d="M40.6813 5.11937L40.3209 7.53264L39.5902 7.42157L39.9605 5.04868L37.8884 0L38.6692 0.121168L40.441 4.42265L43.4441 0.858276L44.1448 1.00974L40.6813 5.11937Z" fill="white"/>
<path d="M50.5813 4.69524L51.4521 5.83624L51.0718 6.13916L50.2009 4.96786L49.6503 6.29062L49.2299 6.10887L49.7905 4.78611L48.349 4.97796V4.49329L49.7704 4.33173L48.8895 3.19073L49.2799 2.88781L50.0507 4.03891L50.5913 2.70605L51.0217 2.88781L50.5112 4.24085L51.9527 4.03891V4.53368L50.5813 4.69524Z" fill="white"/>
<path d="M53.9247 12.8336C53.6883 12.466 53.5409 12.0475 53.4943 11.6119L54.0849 11.3493C54.1292 11.7496 54.2589 12.1354 54.4652 12.4802C54.6889 12.8669 54.9806 13.2091 55.3261 13.49C55.6829 13.8346 56.1382 14.0571 56.6274 14.1261C56.8042 14.1426 56.9823 14.1154 57.1463 14.0468C57.3103 13.9781 57.4551 13.8702 57.5684 13.7323C57.6514 13.6399 57.7147 13.5313 57.7543 13.4131C57.7939 13.295 57.809 13.1699 57.7986 13.0457C57.7655 12.7996 57.6838 12.5627 57.5584 12.349C57.3703 12.039 57.1665 11.7391 56.9478 11.4503C56.6813 11.0981 56.4404 10.7269 56.227 10.3396C56.064 10.0497 55.9746 9.72363 55.9668 9.39043C55.9661 9.01625 56.1055 8.6556 56.3572 8.38069C56.5753 8.11425 56.8632 7.91485 57.188 7.80514C57.551 7.69939 57.9362 7.69939 58.2991 7.80514C58.7668 7.95941 59.199 8.20661 59.5704 8.53215C59.8786 8.79072 60.1513 9.08954 60.3813 9.42072C60.5939 9.72785 60.753 10.0693 60.8517 10.4305L60.2812 10.7334C60.1816 10.3968 60.0332 10.0769 59.8407 9.78423C59.6489 9.52285 59.4234 9.28854 59.17 9.08751C58.8185 8.74445 58.3646 8.52794 57.8787 8.47157C57.7001 8.45651 57.5207 8.48646 57.3564 8.55872C57.1922 8.63099 57.0483 8.7433 56.9378 8.88556C56.8526 8.97653 56.788 9.08497 56.7482 9.20348C56.7085 9.32199 56.6946 9.44776 56.7075 9.57218C56.731 9.82681 56.8132 10.0724 56.9478 10.2891C57.0879 10.5213 57.2881 10.8243 57.5584 11.1878C57.8263 11.5319 58.0673 11.8965 58.2791 12.2783C58.4457 12.5672 58.5386 12.8934 58.5494 13.2274C58.5501 13.6016 58.4106 13.9623 58.159 14.2372C57.94 14.5073 57.6479 14.7073 57.3181 14.8127C56.9558 14.9231 56.5693 14.9231 56.207 14.8127C55.7362 14.6589 55.3005 14.4117 54.9257 14.0857C54.5216 13.731 54.1828 13.3071 53.9247 12.8336Z" fill="white"/>
<path d="M63.995 14.3079L62.5835 12.2884L63.1041 11.9148L66.3574 16.6L65.8368 16.9736L64.4254 14.9541L59.2001 18.6396L58.7797 18.0237L63.995 14.3079Z" fill="white"/>
<path d="M61.7526 22.608C61.9313 21.9977 62.2785 21.4514 62.7536 21.0328C63.2184 20.6129 63.7846 20.3239 64.3953 20.1947C65.0178 20.0506 65.6671 20.0749 66.2772 20.2654C66.8662 20.4618 67.3941 20.8098 67.8088 21.2751C68.24 21.7755 68.5334 22.3814 68.6596 23.0321C68.8254 23.6709 68.8254 24.342 68.6596 24.9809C68.476 25.5888 68.1296 26.1339 67.6586 26.5561C67.181 26.9873 66.6008 27.2864 65.9746 27.4244C65.3484 27.5625 64.6974 27.5346 64.085 27.3437C63.4916 27.1568 62.9613 26.8072 62.5534 26.3339C62.1242 25.8361 61.8309 25.234 61.7026 24.5871C61.5497 23.9341 61.5669 23.2523 61.7526 22.608ZM63.064 25.8189C63.3982 26.2029 63.8313 26.486 64.3152 26.6368C64.8141 26.7828 65.3412 26.8001 65.8484 26.6872C66.3556 26.5743 66.8266 26.3348 67.2182 25.9906C67.5876 25.6477 67.8605 25.2122 68.009 24.7284C68.1486 24.2176 68.1622 23.6801 68.0488 23.1627C67.9354 22.6453 67.6984 22.1637 67.3583 21.7598C67.0094 21.374 66.563 21.0913 66.067 20.9419C65.5619 20.8066 65.0305 20.8066 64.5254 20.9419C64.0158 21.0406 63.544 21.282 63.1641 21.6386C62.7912 21.9827 62.5179 22.4225 62.3733 22.9109C62.2373 23.4236 62.2373 23.9633 62.3733 24.476C62.4829 24.977 62.7211 25.4401 63.064 25.8189Z" fill="white"/>
<path d="M60.9918 34.331L63.5845 33.3213C63.5845 33.1395 63.6445 32.9578 63.6946 32.7659L64.1851 30.9383L62.0629 30.3829L62.2531 29.666L69.02 31.4936L68.3393 34.0483C68.1859 34.7937 67.7743 35.4596 67.1781 35.9264C66.9042 36.1183 66.5899 36.2436 66.26 36.2927C65.9301 36.3417 65.5933 36.3131 65.2762 36.2091C64.7931 36.1034 64.3602 35.8347 64.049 35.4474C63.7378 35.06 63.5669 34.5772 63.5644 34.0786L60.8016 35.0883L60.9918 34.331ZM64.3452 34.6137C64.4625 34.8283 64.6216 35.0168 64.8129 35.1678C65.0042 35.3188 65.2238 35.4292 65.4585 35.4924C65.6932 35.5556 65.9381 35.5702 66.1786 35.5355C66.4191 35.5008 66.6501 35.4173 66.8578 35.2903C67.2996 34.9323 67.6011 34.4278 67.7086 33.8665L68.1891 32.049L64.7957 31.1301L64.3152 32.9477C64.1305 33.4893 64.1412 34.0792 64.3452 34.6137Z" fill="white"/>
<path d="M57.3982 40.8337L56.8877 40.4399L59.8907 36.4514L65.4764 40.7226L62.5735 44.5899L62.0629 44.1961L64.5154 40.9346L62.5134 39.4099L60.3212 42.3281L59.8207 41.9444L62.0629 39.0262L59.9908 37.441L57.3982 40.8337Z" fill="white"/>
<path d="M55.0558 48.8814L53.6244 48.9622V48.4776L55.0558 48.4675L54.2851 47.2659L54.6755 47.0134L55.4362 48.2251L56.0569 46.8721L56.4873 47.1043L55.8066 48.3766L57.2381 48.2958V48.7906H55.7866L56.5574 49.9922L56.167 50.2446L55.4062 49.0329L54.7455 50.3456L54.3251 50.1032L55.0558 48.8814Z" fill="white"/>
<path d="M42.0426 48.0735L43.2538 48.7501C43.4569 48.3566 43.7403 48.011 44.0854 47.736C44.4305 47.461 44.8294 47.2629 45.2559 47.1547C45.6537 47.0295 46.0721 46.9849 46.4871 47.0234C46.8472 47.0513 47.1931 47.1769 47.4881 47.3869C47.7549 47.5897 47.9511 47.8725 48.0487 48.1947C48.1694 48.5933 48.1481 49.0219 47.9886 49.4064C47.7375 49.9288 47.3988 50.4036 46.9876 50.8099C47.3176 50.9888 47.6238 51.2094 47.8986 51.4663C48.0873 51.6631 48.2279 51.9016 48.309 52.163C48.3603 52.3667 48.3634 52.5797 48.3182 52.7849C48.273 52.9901 48.1807 53.1817 48.0487 53.3444C47.7815 53.7327 47.3828 54.0093 46.9276 54.1219C46.5279 54.2756 46.086 54.2756 45.6863 54.1219C45.5086 54.0447 45.351 53.9271 45.2259 53.7782C45.1009 53.6293 45.0117 53.4531 44.9656 53.2636C44.8606 52.9303 44.8857 52.5691 45.0356 52.2538C45.2654 51.7948 45.5661 51.3756 45.9266 51.0119L43.5141 49.6588C43.4221 50.1343 43.4018 50.6211 43.454 51.1027H42.8434C42.8023 50.5097 42.8702 49.914 43.0436 49.3458L41.7823 48.639L42.0426 48.0735ZM43.7844 49.0833L46.4371 50.5676C46.7847 50.2327 47.0725 49.8399 47.2879 49.4064C47.3979 49.1136 47.3979 48.7904 47.2879 48.4976C47.2425 48.3227 47.1547 48.1619 47.0324 48.0297C46.9101 47.8975 46.7571 47.7981 46.5872 47.7403C46.1717 47.5987 45.7215 47.5987 45.3059 47.7403C44.9663 47.8307 44.6505 47.9951 44.3807 48.2218C44.1109 48.4486 43.8937 48.7323 43.7443 49.053L43.7844 49.0833ZM47.5482 53.1222C47.6136 53.0106 47.6546 52.8862 47.6684 52.7574C47.6822 52.6285 47.6685 52.4981 47.6283 52.375C47.567 52.1756 47.4568 51.995 47.308 51.8499C47.0531 51.6331 46.7744 51.4468 46.4771 51.2946C46.1736 51.5973 45.908 51.9364 45.6863 52.3043C45.5653 52.5337 45.5366 52.8014 45.6062 53.0515C45.638 53.1671 45.6936 53.2745 45.7696 53.3668C45.8455 53.459 45.9399 53.534 46.0467 53.5867C46.3015 53.6836 46.5826 53.6836 46.8375 53.5867C47.1096 53.5135 47.3472 53.3453 47.5082 53.1121L47.5482 53.1222Z" fill="white"/>
<path d="M29.8403 55.8587L29.9805 48.7905H30.6912L30.5811 54.4451L33.424 49.7397H33.7743L36.437 54.5258L36.5371 48.9016H37.2478L37.1177 55.9698H36.5071L33.5641 50.6888L30.451 55.8688L29.8403 55.8587Z" fill="white"/>
<path d="M26.3568 48.4673C26.8145 48.9074 27.1421 49.4671 27.3029 50.084C27.4638 50.7008 27.4516 51.3507 27.2677 51.961C27.1032 52.5859 26.7747 53.1545 26.3167 53.6069C25.8717 54.0481 25.3136 54.3558 24.7051 54.4954C24.0631 54.6415 23.3949 54.6207 22.7631 54.4348C22.1335 54.2797 21.5542 53.9632 21.0814 53.516C20.6305 53.0815 20.3082 52.5292 20.1505 51.9206C19.9965 51.2915 20.0079 50.6328 20.1834 50.0095C20.359 49.3862 20.6927 48.8198 21.1515 48.3663C21.5887 47.9262 22.1348 47.6124 22.7331 47.4576C23.3717 47.3119 24.0366 47.3327 24.6651 47.5181C25.3012 47.6808 25.8843 48.0079 26.3568 48.4673ZM22.9433 48.1139C22.4537 48.2289 22.0061 48.4809 21.652 48.8409C21.2833 49.2114 21.0205 49.6753 20.8912 50.1838C20.7516 50.6892 20.7516 51.2234 20.8912 51.7287C21.0093 52.2204 21.2626 52.6684 21.622 53.0212C21.9989 53.393 22.4642 53.6607 22.9733 53.7987C23.4824 53.9295 24.0159 53.9295 24.5249 53.7987C25.015 53.6772 25.4641 53.4262 25.8262 53.0717C26.193 52.6997 26.4555 52.2363 26.587 51.7287C26.7269 51.22 26.7269 50.6825 26.587 50.1738C26.4589 49.684 26.2031 49.2377 25.8463 48.8813C25.4674 48.509 24.9978 48.2443 24.4849 48.1139C23.9805 47.9732 23.4477 47.9732 22.9433 48.1139Z" fill="white"/>
<path d="M15.3655 43.4186L15.6358 46.1954C15.8075 46.2693 15.9746 46.3536 16.1363 46.4478L17.768 47.3969L18.8691 45.4381L19.5198 45.8117L16.0162 51.9004L13.7339 50.5776C13.0593 50.2357 12.5271 49.6631 12.2324 48.962C12.1235 48.6462 12.0868 48.3096 12.125 47.9774C12.1631 47.6452 12.2751 47.326 12.4526 47.0435C12.6853 46.601 13.0541 46.2467 13.5037 46.0338C13.9602 45.843 14.4652 45.8041 14.9451 45.9227L14.6548 42.9541L15.3655 43.4186ZM14.2244 46.6093C13.9893 46.6688 13.7685 46.7756 13.5752 46.9232C13.382 47.0707 13.2202 47.2561 13.0997 47.4682C12.9791 47.6804 12.9022 47.9148 12.8736 48.1576C12.845 48.4004 12.8652 48.6465 12.9331 48.8813C13.1677 49.4039 13.5745 49.8284 14.0842 50.0828L15.6959 51.0219L17.4477 47.9927L15.836 47.0536C15.3728 46.7035 14.8024 46.5284 14.2244 46.5589V46.6093Z" fill="white"/>
<path d="M9.43963 38.6829L9.89008 38.2285L13.3436 41.8131L8.33851 46.7406L5.00513 43.2671L5.46559 42.8127L8.29847 45.7511L10.0102 44.0042L7.52769 41.3991L8.00817 40.9346L10.5407 43.5599L12.4026 41.7323L9.43963 38.6829Z" fill="white"/>
<path d="M2.00202 34.7147L2.24226 33.3213L2.71274 33.392L2.44246 34.8258L3.77381 34.331L3.93398 34.7753L2.58261 35.2398L3.69373 36.1889L3.37341 36.5524L2.30232 35.5427L2.05207 36.9765L1.57158 36.8857L1.85186 35.4518L0.510504 35.9365L0.360352 35.5427L1.70171 35.0681L0.590585 34.1291L0.92092 33.7656L2.00202 34.7147Z" fill="white"/>
</g>
<defs>
<clipPath id="clip0_56_22">
<rect width="69" height="56" fill="white"/>
</clipPath>
</defs>
</svg>
